<?xml version="1.0" standalone="no"?>
<!DOCTYPE svg PUBLIC "-//W3C//DTD SVG 20010904//EN"
 "http://www.w3.org/TR/2001/REC-SVG-20010904/DTD/svg10.dtd">
<svg version="1.0" xmlns="http://www.w3.org/2000/svg"
 width="187.000000pt" height="187.000000pt" viewBox="0 0 187.000000 187.000000"
 preserveAspectRatio="xMidYMid meet">
<metadata>
Created by potrace 1.14, written by Peter Selinger 2001-2017
</metadata>
<g transform="translate(0.000000,187.000000) scale(0.100000,-0.100000)"
fill="#000000" stroke="none">
<path d="M150 1311 c-19 -69 -24 -66 128 -67 146 0 199 -11 232 -47 38 -40 18
-115 -42 -160 -51 -37 -208 -71 -208 -44 0 6 11 58 24 115 l23 102 -91 0 -92
0 -33 -147 c-18 -82 -35 -156 -38 -167 -5 -18 2 -18 153 -13 88 3 173 8 189
11 163 36 250 87 296 175 25 48 31 99 18 145 -5 16 -7 31 -5 33 1 2 29 -70 61
-159 32 -90 70 -196 85 -237 23 -64 28 -71 41 -58 14 14 80 89 168 191 69 80
91 106 164 188 l68 77 143 -3 c117 -3 150 -7 188 -24 38 -16 49 -27 56 -54 24
-91 -73 -173 -217 -182 -28 -2 -51 0 -51 5 0 8 38 172 46 202 5 16 -2 18 -87
15 l-94 -3 -12 -55 c-7 -30 -22 -95 -33 -145 -11 -49 -23 -98 -26 -108 -6 -19
1 -19 157 -14 90 3 175 7 188 11 138 33 218 72 262 127 92 116 75 221 -46 279
-85 41 -141 48 -378 46 l-210 -1 -111 -147 c-61 -81 -114 -147 -118 -147 -3
-1 -27 66 -54 148 l-48 150 -343 -1 -343 0 -10 -37z"/>
<path d="M707 774 c-1 -1 -58 -5 -127 -8 -301 -14 -506 -49 -561 -96 l-24 -20
27 -24 c16 -15 54 -30 95 -40 88 -20 99 -21 253 -41 205 -26 935 -26 1030 0 8
2 42 7 74 10 50 4 115 17 211 40 11 2 35 14 53 25 27 17 31 23 22 39 -15 30
-165 73 -300 86 -36 3 -76 8 -90 10 -82 12 -652 29 -663 19z m683 -83 c34 -25
33 -68 -1 -93 -57 -43 -160 -15 -167 45 -8 64 104 96 168 48z m-975 -22 l19
-41 24 41 c18 31 30 41 49 41 l25 0 -28 -47 c-15 -27 -32 -56 -38 -66 -19 -31
-48 -15 -88 51 l-38 62 29 0 c23 0 31 -7 46 -41z m249 -11 c-3 -79 -2 -78 -24
-78 -14 0 -20 7 -21 23 -2 22 -1 86 0 100 1 4 11 7 24 7 21 0 22 -4 21 -52z
m213 46 c28 -8 56 -49 48 -73 -9 -29 -64 -53 -115 -49 l-44 3 -1 55 c-1 30 0
58 2 63 5 8 79 9 110 1z m250 -9 c0 -10 -10 -15 -29 -15 -15 0 -28 -4 -28 -10
0 -5 11 -10 25 -10 16 0 25 -6 25 -15 0 -9 -9 -15 -25 -15 -14 0 -25 -4 -25
-10 0 -5 13 -10 28 -10 19 0 29 -5 29 -15 0 -11 -13 -15 -54 -15 l-53 0 0 65
0 65 53 0 c41 0 54 -4 54 -15z"/>
<path d="M1283 673 c-16 -6 -17 -35 -1 -51 28 -28 88 -8 88 29 0 25 -49 38
-87 22z"/>
<path d="M812 645 c1 -29 5 -35 23 -35 13 0 28 6 34 14 18 22 -3 56 -34 56
-21 0 -24 -4 -23 -35z"/>
</g>
</svg>
